HIERARCHY
ROOT SpineBase
{
  OFFSET 0.000000 0.000000 0.000000
  CHANNELS 6 Xposition Yposition Zposition Zrotation Xrotation Yrotation
  JOINT SpineMid
  {
    OFFSET 0.000000 33.563386 0.000000
    CHANNELS 3 Zrotation Xrotation Yrotation
    JOINT SpineShoulder
    {
      OFFSET 0.092560 25.060641 -0.625059
      CHANNELS 3 Zrotation Xrotation Yrotation
      JOINT Neck
      {
        OFFSET 0.070393 8.299794 -0.537851
        CHANNELS 3 Zrotation Xrotation Yrotation
        JOINT Head
        {
          OFFSET -2.337239 14.263051 0.356953
          CHANNELS 3 Zrotation Xrotation Yrotation
          End Site
          {
            OFFSET 0 0 0
          }
        }
      }
      JOINT ShoulderLeft
      {
        OFFSET -12.273702 -19.751428 -5.652562
        CHANNELS 3 Zrotation Xrotation Yrotation
        JOINT ElbowLeft
        {
          OFFSET -16.274657 -5.092888 14.003485
          CHANNELS 3 Zrotation Xrotation Yrotation
          JOINT WristLeft
          {
            OFFSET 10.582936 -23.755139 -10.519333
            CHANNELS 3 Zrotation Xrotation Yrotation
            JOINT HandLeft
            {
              OFFSET 4.818524 -6.520861 -4.902640
              CHANNELS 3 Zrotation Xrotation Yrotation
              JOINT HandTipLeft
              {
                OFFSET 3.495385 -6.690821 0.568446
                CHANNELS 3 Zrotation Xrotation Yrotation
                End Site
                {
                  OFFSET 0 0 0
                }
              }
              JOINT ThumbLeft
              {
                OFFSET 3.603390 3.580694 -4.630981
                CHANNELS 3 Zrotation Xrotation Yrotation
                End Site
                {
                  OFFSET 0 0 0
                }
              }
            }
          }
        }
      }
      JOINT ShoulderRight
      {
        OFFSET 12.960354 -2.386590 -4.126125
        CHANNELS 3 Zrotation Xrotation Yrotation
        JOINT ElbowRight
        {
          OFFSET 7.573341 -29.280745 3.661195
          CHANNELS 3 Zrotation Xrotation Yrotation
          JOINT WristRight
          {
            OFFSET 2.812996 -24.998440 -4.634819
            CHANNELS 3 Zrotation Xrotation Yrotation
            JOINT HandRight
            {
              OFFSET -1.303168 -5.017653 0.846417
              CHANNELS 3 Zrotation Xrotation Yrotation
              JOINT HandTipRight
              {
                OFFSET 0.691997 -6.573622 0.375639
                CHANNELS 3 Zrotation Xrotation Yrotation
                End Site
                {
                  OFFSET 0 0 0
                }
              }
              JOINT ThumbRight
              {
                OFFSET 3.355338 1.724157 -1.873477
                CHANNELS 3 Zrotation Xrotation Yrotation
                End Site
                {
                  OFFSET 0 0 0
                }
              }
            }
          }
        }
      }
    }
  }
  JOINT HipLeft
  {
    OFFSET -6.460490 0.318785 -5.386904
    CHANNELS 3 Zrotation Xrotation Yrotation
    JOINT KneeLeft
    {
      OFFSET -3.558719 -33.961147 10.294346
      CHANNELS 3 Zrotation Xrotation Yrotation
      JOINT AnkleLeft
      {
        OFFSET -1.741355 -31.382949 6.131295
        CHANNELS 3 Zrotation Xrotation Yrotation
        JOINT FootLeft
        {
          OFFSET -2.264150 -7.621063 -5.866795
          CHANNELS 3 Zrotation Xrotation Yrotation
          End Site
          {
            OFFSET 0 0 0
          }
        }
      }
    }
  }
  JOINT HipRight
  {
    OFFSET 6.758745 1.688538 -1.803766
    CHANNELS 3 Zrotation Xrotation Yrotation
    JOINT KneeRight
    {
      OFFSET 2.129307 -35.296562 1.498340
      CHANNELS 3 Zrotation Xrotation Yrotation
      JOINT AnkleRight
      {
        OFFSET 0.438927 -31.341311 3.480987
        CHANNELS 3 Zrotation Xrotation Yrotation
        JOINT FootRight
        {
          OFFSET -1.085689 -7.651629 -6.516601
          CHANNELS 3 Zrotation Xrotation Yrotation
          End Site
          {
            OFFSET 0 0 0
          }
        }
      }
    }
  }
}
MOTION
Frames: 10
Frame Time: 0.033333
-13.940528 77.537828 348.080648 3.106726 -2.360839 2.268420 0.196123 -1.050838 -2.083305 0.205864 -0.352435 0.170289 3.159222 8.991076 -0.197826 0.000000 0.000000 0.000000 31.766932 28.983521 -9.344474 -41.208794 -31.861485 -13.935538 -2.838243 -2.948483 -1.009591 -4.460108 8.954650 2.128073 0.000000 0.000000 0.000000 0.000000 0.000000 0.000000 -4.038396 4.840228 0.106505 -2.827966 -7.387834 -0.560435 15.130673 12.984106 -1.894294 -13.873719 -13.621843 -2.111959 0.000000 0.000000 0.000000 0.000000 0.000000 0.000000 -11.525864 9.982493 -4.651049 6.719554 -5.564927 3.188955 7.166693 41.727858 -14.309526 0.000000 0.000000 0.000000 -8.983558 4.432196 -1.929986 9.186568 -8.458913 0.771505 -16.457671 31.957225 9.868062 0.000000 0.000000 0.000000
-14.863482 77.097990 347.319679 3.027233 -3.256796 6.845345 0.231729 -1.154746 -6.637077 0.368364 -0.234659 0.175141 6.246738 10.035198 -0.758784 0.000000 0.000000 0.000000 39.057088 33.244054 -12.629090 -55.490837 -36.338729 -21.982115 0.931880 -3.761217 -5.233390 -15.372341 6.095822 3.381778 0.000000 0.000000 0.000000 0.000000 0.000000 0.000000 -3.371048 6.859118 0.455988 -4.363893 -10.313385 -1.276273 17.640588 11.880606 -1.187286 -14.913613 -11.058178 -2.735495 0.000000 0.000000 0.000000 0.000000 0.000000 0.000000 -9.357140 10.750431 -8.789638 4.481626 -2.905311 2.316968 5.378229 45.379406 -12.941023 0.000000 0.000000 0.000000 -9.196351 4.171855 -6.521995 11.300281 -6.548189 0.962605 -20.886652 18.649020 13.889340 0.000000 0.000000 0.000000
-17.326153 75.002290 346.891996 1.878168 -5.082035 -1.878026 0.331156 -0.920846 2.042383 0.399184 -0.170690 0.125141 8.536002 10.191385 -1.264920 0.000000 0.000000 0.000000 44.269282 35.709529 -15.646402 -62.481425 -38.285362 -26.169683 3.636320 -3.105121 -7.405597 -23.848192 5.639703 6.371889 0.000000 0.000000 0.000000 0.000000 0.000000 0.000000 -1.560198 9.816265 0.843299 -6.025056 -13.003707 -2.023096 20.742196 11.399268 -0.971961 -16.085493 -9.143847 -3.189881 0.000000 0.000000 0.000000 0.000000 0.000000 0.000000 -3.935606 6.077918 1.557688 -2.020953 3.999852 -0.246086 -1.196124 44.130842 -6.494268 0.000000 0.000000 0.000000 -6.569922 7.491853 2.517445 9.488495 -10.865668 1.166755 -20.156892 3.669851 15.259977 0.000000 0.000000 0.000000
-21.804655 72.536353 346.228937 -1.057478 -6.349153 3.732130 0.451075 -1.321084 -3.811871 0.634125 -0.150685 0.016210 9.186022 9.009129 -1.437805 0.000000 0.000000 0.000000 49.374258 37.394112 -18.122188 -65.109314 -38.907883 -27.812614 4.041603 -3.710739 -8.503266 -26.283935 7.469541 9.567109 0.000000 0.000000 0.000000 0.000000 0.000000 0.000000 -0.595338 12.520764 1.191300 -4.882163 -14.935402 -2.319424 24.492485 15.924941 -3.050277 -19.392141 -13.886702 -3.502482 0.000000 0.000000 0.000000 0.000000 0.000000 0.000000 15.481836 8.830573 -1.876061 -17.562273 3.768028 -5.320340 -21.497438 44.708505 10.647925 0.000000 0.000000 0.000000 1.264824 7.355120 -3.793736 6.073792 -10.266135 1.028665 -15.154897 0.974280 10.533063 0.000000 0.000000 0.000000
-26.648992 70.344907 345.198361 -4.422557 -8.119673 -9.078551 0.914663 -1.370227 8.612025 0.797890 -0.116054 -0.117874 8.126051 8.145578 -1.336532 0.000000 0.000000 0.000000 54.086031 38.721590 -20.416896 -64.165129 -38.716396 -27.254153 3.925729 -3.959328 -8.509845 -21.373195 14.249446 14.269764 0.000000 0.000000 0.000000 0.000000 0.000000 0.000000 -0.456886 17.095780 2.164268 -1.406397 -15.470153 -2.371795 17.816426 6.036273 1.039498 -12.386966 -2.875688 -3.057905 0.000000 0.000000 0.000000 0.000000 0.000000 0.000000 32.060208 3.037185 15.106746 -30.188298 20.229602 -6.676480 -32.577331 39.117673 20.020303 0.000000 0.000000 0.000000 9.223789 14.633039 7.881708 -0.095135 -15.204482 0.887768 -17.983352 2.935713 12.459306 0.000000 0.000000 0.000000
-30.761726 65.970764 343.342393 -7.537728 -10.049109 -14.756302 1.136834 -1.363435 13.809854 0.859575 -0.116920 -0.246131 5.299100 8.168556 -0.821122 0.000000 0.000000 0.000000 58.752957 39.992763 -22.655705 -64.234862 -38.517224 -27.423593 0.477393 -5.367909 -6.690061 -12.657343 24.864126 17.361317 0.000000 0.000000 0.000000 0.000000 0.000000 0.000000 -2.376162 19.287458 2.890719 4.366784 -16.336540 -1.591615 12.844665 -4.215717 4.814899 -7.159543 8.088740 -4.747242 0.000000 0.000000 0.000000 0.000000 0.000000 0.000000 49.547696 9.528945 19.858391 -44.492090 25.464733 -7.927327 -32.334653 34.326676 20.235924 0.000000 0.000000 0.000000 18.356208 19.151412 10.889687 -7.136658 -15.954093 0.490135 -16.908152 13.579875 9.597060 0.000000 0.000000 0.000000
-32.393624 54.146727 341.619418 -10.645351 -12.006528 -14.036075 1.215548 -1.515740 12.488802 0.878514 -0.177184 -0.377209 1.464497 8.584209 0.082993 0.000000 0.000000 0.000000 59.531890 39.898982 -24.431332 -60.015532 -37.743656 -23.010549 -5.720645 -7.848971 -2.757708 10.139890 48.565386 18.887432 0.000000 0.000000 0.000000 0.000000 0.000000 0.000000 -5.024116 19.696849 3.291814 10.703814 -17.712991 -0.609394 21.073697 -5.507694 7.473990 -16.326663 10.885280 -5.939332 0.000000 0.000000 0.000000 0.000000 0.000000 0.000000 69.284344 13.385672 17.002167 -60.652790 28.993140 -8.768049 -33.235918 30.556608 21.177443 0.000000 0.000000 0.000000 31.774738 17.782087 6.262845 -16.732318 -12.089317 0.326076 -19.036691 38.535384 9.418975 0.000000 0.000000 0.000000
-33.112269 47.171303 341.281406 -11.649624 -14.487473 4.372529 0.604760 -1.666591 -6.314791 0.750845 -0.235148 -0.419656 -0.439148 9.155586 0.421279 0.000000 0.000000 0.000000 62.234379 41.106720 -27.184464 -60.349365 -37.804437 -23.002826 -7.741093 -8.618372 -1.505450 30.543402 52.084166 8.503360 0.000000 0.000000 0.000000 0.000000 0.000000 0.000000 -9.463965 18.100057 3.055866 17.009284 -18.407264 0.272980 29.987990 -5.035294 9.283776 -27.898944 12.413613 -5.810193 0.000000 0.000000 0.000000 0.000000 0.000000 0.000000 99.567074 14.621556 -2.878350 -84.904298 16.655748 -22.808129 -27.741489 26.593931 17.392407 0.000000 0.000000 0.000000 40.722578 -13.060148 -7.433525 -24.831534 10.701480 4.615066 -28.479211 53.767826 17.299067 0.000000 0.000000 0.000000
-35.892978 46.424131 340.040828 -10.884436 -16.113468 -6.615515 0.743964 -1.314564 4.676707 0.463637 -0.342673 -0.377811 -5.576745 11.721197 2.237107 0.000000 0.000000 0.000000 68.369620 43.185553 -30.173636 -65.391950 -38.731802 -28.789950 -11.684411 -11.179039 -1.010877 18.485569 45.247312 10.530352 0.000000 0.000000 0.000000 0.000000 0.000000 0.000000 -15.825361 14.050410 2.001849 24.068847 -18.871467 0.638835 33.468284 -0.901630 8.083083 -37.122633 10.155140 -4.646720 0.000000 0.000000 0.000000 0.000000 0.000000 0.000000 121.453554 22.862549 -6.783095 -104.927265 25.031693 -21.819329 -17.584815 23.294779 10.223879 0.000000 0.000000 0.000000 51.906752 -6.899340 -0.007398 -34.552247 15.201404 6.400996 -31.008416 60.966702 16.814885 0.000000 0.000000 0.000000
-37.971415 49.789709 338.833701 -6.816214 -16.947697 2.945911 0.362986 -0.874724 -4.161171 -0.164811 -0.550058 -0.170960 -10.762467 14.293432 3.919242 0.000000 0.000000 0.000000 74.416781 45.638980 -32.256495 -74.247713 -38.687248 -38.565515 -11.864495 -13.660780 -4.929205 -1.813593 29.242255 12.141424 0.000000 0.000000 0.000000 0.000000 0.000000 0.000000 -25.530207 9.611965 0.912917 31.287334 -20.743674 0.213380 35.405395 3.035958 6.294038 -44.105462 7.308201 -3.617024 0.000000 0.000000 0.000000 0.000000 0.000000 0.000000 160.978969 22.201694 -58.366712 -129.436189 2.925798 -64.520539 1.165073 18.547902 -2.982206 0.000000 0.000000 0.000000 52.534226 -31.085536 0.727165 -41.647724 35.906519 13.434124 -28.460471 61.956820 10.748042 0.000000 0.000000 0.000000
